<?xml version="1.0" encoding="UTF-8" standalone="no"?>
<svg width="92px" height="50px" viewBox="0 0 92 50" version="1.1" xmlns="http://www.w3.org/2000/svg" xmlns:xlink="http://www.w3.org/1999/xlink" xmlns:sketch="http://www.bohemiancoding.com/sketch/ns">
    <!-- Generator: Sketch 3.1.1 (8761) - http://www.bohemiancoding.com/sketch -->
    <title>arrival</title>
    <desc>Created with Sketch.</desc>
    <defs></defs>
    <g id="Page-1" stroke="none" stroke-width="1" fill="none" fill-rule="evenodd" sketch:type="MSPage">
        <g id="arrival" sketch:type="MSLayerGroup" transform="translate(-4.000000, -25.000000)" fill="#000000">
            <path d="M62.99831,55.30551 L88.74764,62.02372 C98.95919,64.688 95.69344,76.74693 86.44375,74.48878 C86.44375,74.48878 44.26032,63.88918 23.63818,59.15602 C20.5953,58.45763 17.25904,57.70668 14.98832,55.56407 C14.98832,55.56407 6.00939,48.30347 5.13609,46.26773 C4.2666,44.24078 6.8911,29.44456 6.8911,29.44456 C6.8911,29.44456 14.32871,30.65513 14.86083,31.20783 C15.4881,31.85944 16.78836,37.53776 18.03679,41.04579 C19.31935,44.64967 21.10795,45.29451 24.17055,45.80731 C27.4602,46.35811 37.67243,48.79679 37.67243,48.79679 L33.75391,25.23115 L45.9809,27.84172 L62.99831,55.30551 Z" id="path3808" sketch:type="MSShapeGroup"></path>
        </g>
    </g>
</svg>