<?xml version="1.0" encoding="UTF-8" standalone="no"?>
<svg width="91px" height="50px" viewBox="0 0 91 50" version="1.1" xmlns="http://www.w3.org/2000/svg" xmlns:xlink="http://www.w3.org/1999/xlink" xmlns:sketch="http://www.bohemiancoding.com/sketch/ns">
    <!-- Generator: Sketch 3.1.1 (8761) - http://www.bohemiancoding.com/sketch -->
    <title>arrival</title>
    <desc>Created with Sketch.</desc>
    <defs></defs>
    <g id="Page-1" stroke="none" stroke-width="1" fill="none" fill-rule="evenodd" sketch:type="MSPage">
        <g id="arrival" sketch:type="MSLayerGroup" fill="#000000">
            <g id="Page-1" sketch:type="MSShapeGroup">
                <g id="example">
                    <path d="M58.0387834,30.07436 L83.7881134,36.79257 C93.9996634,39.45685 90.7339134,51.51578 81.4842234,49.25763 C81.4842234,49.25763 39.3007934,38.65803 18.6786534,33.92487 C15.6357734,33.22648 12.2995134,32.47553 10.0287934,30.33292 C10.0287934,30.33292 1.04986339,23.07232 0.176563389,21.03658 C-0.692926611,19.00963 1.93157339,4.21341 1.93157339,4.21341 C1.93157339,4.21341 9.36918339,5.42398 9.90130339,5.97668 C10.5285734,6.62829 11.8288334,12.30661 13.0772634,15.81464 C14.3598234,19.41852 16.1484234,20.06336 19.2110234,20.57616 C22.5006734,21.12696 32.7129034,23.56564 32.7129034,23.56564 L28.7943834,0 L41.0213734,2.61057 L58.0387834,30.07436 L58.0387834,30.07436 Z" id="path3808"></path>
                </g>
            </g>
        </g>
    </g>
</svg>