<?xml version="1.0" encoding="UTF-8" standalone="no"?>
<svg width="102px" height="59px" viewBox="0 0 102 59" version="1.1" xmlns="http://www.w3.org/2000/svg" xmlns:xlink="http://www.w3.org/1999/xlink" xmlns:sketch="http://www.bohemiancoding.com/sketch/ns">
    <!-- Generator: Sketch 3.1.1 (8761) - http://www.bohemiancoding.com/sketch -->
    <title>departure</title>
    <desc>Created with Sketch.</desc>
    <defs></defs>
    <g id="Page-1" stroke="none" stroke-width="1" fill="none" fill-rule="evenodd" sketch:type="MSPage">
        <g id="departure" sketch:type="MSLayerGroup" transform="translate(0.000000, -31.000000)" fill="#000000">
            <path d="M92.7099219,51.8987627 L72.3886907,58.30865 L49.2049402,88.6735025 C48.8652775,89.3234266 48.6538489,89.3306031 47.9536323,89.5496777 C47.9536323,89.5496777 45.4075823,90.3663431 45.5837095,89.6585229 L50.508656,65.2097598 L45.4153331,66.8176656 C36.3189389,69.685318 16.4244943,71.8899238 13.4227015,68.649353 C7.25485739,61.9846716 0.105375173,50.3989259 0.105375173,50.3989259 C0.105375173,50.3989259 1.80103329,49.8644391 4.54736836,48.9958375 L21.9329644,57.4709502 L83.5929248,38.027082 C86.0396365,37.2531346 92.010552,37.5008629 95.221003,38.1524265 C99.2006311,38.9600952 100.280384,40.5017794 101.017092,42.8294542 C101.891906,45.6071817 98.2541601,50.1496301 92.7099219,51.8987627 Z M67.9449651,39.0761135 L40.3869245,31.5827424 C39.7370004,31.2430797 37.812208,31.643341 37.1156602,31.8661541 L51.4495283,44.2778485 L67.9449651,39.0761135 Z" id="Shape" sketch:type="MSShapeGroup"></path>
        </g>
    </g>
</svg>