<?xml version="1.0" encoding="UTF-8" standalone="no"?>
<svg width="76px" height="40px" viewBox="0 0 76 40" version="1.1" xmlns="http://www.w3.org/2000/svg" xmlns:xlink="http://www.w3.org/1999/xlink" xmlns:sketch="http://www.bohemiancoding.com/sketch/ns">
    <!-- Generator: Sketch 3.1.1 (8761) - http://www.bohemiancoding.com/sketch -->
    <title>example</title>
    <desc>Created with Sketch.</desc>
    <defs></defs>
    <g id="Page-1" stroke="none" stroke-width="1" fill="none" fill-rule="evenodd" sketch:type="MSPage">
        <g id="example" sketch:type="MSLayerGroup" transform="translate(1.000000, 0.000000)" fill="#000000">
            <path d="M59.0362205,1.52871443 C66.0476144,-2.50573323 78.8176158,2.47662665 73.10643,6.66807175 C72.9326895,6.79558012 67.4814158,10.0351438 67.2903048,10.1499342 C67.2903048,10.1499342 37.6310984,27.6440842 23.3365592,36.5508142 C21.2273391,37.8650442 18.9215128,39.3176542 16.6069947,39.0175742 C16.6069947,39.0175742 9.99183366,37.8223114 6.82903048,36.5508156 C3.66622731,35.2793198 -0.0861435244,25.679884 -0.0861435244,23.3503642 C-0.0861435244,21.0208444 5.20927005,22.1220594 5.77476308,22.2323494 C6.44140804,22.3624294 9.43310959,23.6743442 11.7697856,25.6798842 C14.1703212,27.7402042 15.5171368,27.1528042 17.5531873,25.6798842 C19.74018,24.0977542 26.8622267,19.7619442 26.8622267,19.7619442 C26.8622267,19.7619442 19.7981207,9.25753686 15.9388828,4.46983673 C15.4420381,3.8534602 14.2908237,4.16609073 13.7939789,3.5497142 C11.7697859,0.98063755 24.651036,3.46246436 30.0031604,4.46983671 C34.96474,5.40370103 44.7350911,9.3734242 44.7350911,9.3734242 L59.0362205,1.52871443 Z" id="path3808" sketch:type="MSShapeGroup"></path>
        </g>
    </g>
</svg>