<?xml version="1.0" encoding="utf-8"?>
<!-- Generator: Adobe Illustrator 16.0.4, SVG Export Plug-In . SVG Version: 6.00 Build 0)  -->
<!DOCTYPE svg PUBLIC "-//W3C//DTD SVG 1.1//EN" "http://www.w3.org/Graphics/SVG/1.1/DTD/svg11.dtd">
<svg version="1.1" id="Layer_1" xmlns="http://www.w3.org/2000/svg" xmlns:xlink="http://www.w3.org/1999/xlink" x="0px" y="0px"
	 width="101.503px" height="79.574px" viewBox="0 0 101.503 79.574" enable-background="new 0 0 101.503 79.574"
	 xml:space="preserve">
<path d="M101.323,60.014c-1.018,3.225-7.504,5.123-13.943,3.094l-23.6-7.438L18.615,79.188c-0.756,0.392-2.035,0.505-2.847,0.247
	l-8.849-2.79c-0.812-0.257-0.947-0.919-0.308-1.475l31.759-27.509l-5.916-1.863C21.891,42.467,1.498,31.313,0.801,26.231
	C-0.627,15.783,0.289,0,0.289,0s1.969,0.621,5.16,1.624l10.893,19.642L87.947,43.84C94.314,45.841,102.858,55.127,101.323,60.014z
	 M72.334,58.973c-2.578,0-4.668,2.09-4.668,4.666c0,2.578,2.09,4.668,4.668,4.668c2.576,0,4.666-2.09,4.666-4.668
	C77,61.062,74.911,58.973,72.334,58.973z M38.31,23.301l19.156,6.039L45.071,5.54c-0.392-0.756-1.377-1.582-2.188-1.834
	l-8.844-2.795c-0.812-0.257-1.302,0.21-1.097,1.036L38.31,23.301z"/>
</svg>
